<?xml version="1.0" standalone="no"?>
<!DOCTYPE svg PUBLIC "-//W3C//DTD SVG 20010904//EN"
 "http://www.w3.org/TR/2001/REC-SVG-20010904/DTD/svg10.dtd">
<svg version="1.0" xmlns="http://www.w3.org/2000/svg"
 width="192.000000pt" height="192.000000pt" viewBox="0 0 192.000000 192.000000"
 preserveAspectRatio="xMidYMid meet">

<g transform="translate(0.000000,192.000000) scale(0.100000,-0.100000)"
fill="#FFFFFF" stroke="none">
<path d="M944 1639 c107 -142 191 -335 221 -507 52 -294 -44 -610 -262 -869
-23 -28 -43 -54 -43 -57 0 -18 45 0 111 43 179 118 304 305 356 535 24 108 22
319 -5 418 -44 162 -155 345 -276 456 -53 48 -62 52 -106 52 l-49 0 53 -71z"/>
<path d="M740 1681 c-30 -9 -66 -23 -79 -31 -24 -12 -22 -14 64 -57 133 -66
244 -149 310 -232 21 -28 41 -49 42 -47 8 7 -47 118 -92 188 -50 76 -160 198
-179 197 -6 0 -36 -8 -66 -18z"/>
<path d="M1120 1693 c0 -5 18 -27 40 -48 87 -85 181 -255 219 -396 28 -101 44
-249 36 -334 -29 -305 -149 -543 -350 -693 l-30 -22 30 10 c67 25 164 83 222
136 208 185 322 547 254 809 -42 161 -137 322 -253 430 -61 57 -168 126 -168
108z"/>
<path d="M534 1579 c-110 -76 -189 -169 -252 -294 -56 -113 -67 -166 -67 -330
0 -131 3 -159 23 -220 62 -186 179 -335 337 -431 18 -10 0 13 -44 58 -217 222
-282 451 -200 707 61 192 193 346 384 448 l60 32 -77 35 c-42 20 -83 36 -91
36 -7 0 -40 -18 -73 -41z"/>
<path d="M1420 1556 c0 -3 16 -31 37 -63 50 -79 97 -184 130 -289 25 -82 27
-103 27 -254 0 -154 -2 -171 -28 -250 -35 -107 -94 -221 -157 -305 -27 -36
-43 -65 -37 -65 6 0 52 42 102 92 143 145 212 298 223 493 11 198 -53 386
-183 538 -34 41 -114 112 -114 103z"/>
<path d="M736 1477 c-33 -18 -61 -36 -62 -42 -2 -5 34 -27 78 -49 190 -91 327
-300 361 -553 14 -106 26 -84 34 62 13 241 -96 461 -296 597 -35 24 -47 23
-115 -15z"/>
<path d="M563 1351 c-284 -271 -293 -654 -23 -927 67 -68 131 -115 79 -58
-108 117 -176 358 -149 530 21 137 133 310 262 404 29 22 35 30 25 38 -17 14
-119 62 -132 62 -6 0 -34 -22 -62 -49z"/>
<path d="M738 1245 c-69 -54 -136 -137 -182 -225 -60 -115 -57 -118 40 -40 84
67 220 145 297 170 20 6 37 18 37 26 0 21 -95 114 -117 114 -10 0 -44 -20 -75
-45z"/>
<path d="M842 1095 c-83 -40 -196 -111 -262 -164 l-25 -21 30 0 c76 0 415 99
415 122 0 22 -43 108 -54 108 -7 0 -54 -20 -104 -45z"/>
<path d="M888 949 c-83 -27 -237 -61 -339 -74 -54 -7 -59 -17 -51 -109 5 -65
9 -66 93 -37 77 26 152 65 244 127 85 56 167 124 150 123 -5 -1 -49 -14 -97
-30z"/>
<path d="M975 923 c-97 -89 -285 -198 -405 -234 -57 -17 -31 -27 72 -28 127
-1 312 32 409 73 l36 15 -9 58 c-11 72 -37 163 -46 163 -4 -1 -29 -22 -57 -47z"/>
<path d="M1010 678 c-98 -34 -223 -50 -361 -46 -152 4 -148 8 -95 -108 40 -85
24 -82 176 -37 121 36 225 89 289 149 31 29 54 54 51 57 -3 2 -30 -4 -60 -15z"/>
<path d="M1030 579 c-68 -88 -184 -198 -278 -264 -39 -27 -71 -53 -72 -57 0
-3 21 -13 48 -22 l47 -17 78 80 c77 80 161 198 211 299 14 28 25 52 24 52 -2
0 -28 -32 -58 -71z"/>
<path d="M887 514 c-38 -19 -113 -50 -168 -69 l-101 -33 37 -41 c21 -23 44
-41 52 -41 23 0 100 61 183 144 41 42 72 76 70 76 -3 -1 -36 -17 -73 -36z"/>
</g>
</svg>
